%FSLAX34Y34*%
%MOMM*%
G04 EasyPC Gerber Version 18.0.9 Build 3640 *
%AMT109*0 Bullet Pad at angle 0*4,1,26,-0.40000,-0.30000,0.40000,-0.30000,0.40000,-0.10000,0.39630,-0.04550,0.38520,0.00800,0.36690,0.05940,0.34180,0.10790,0.31030,0.15250,0.27300,0.19240,0.23060,0.22680,0.18400,0.25520,0.13390,0.27690,0.08130,0.29160,0.02720,0.29900,-0.02740,0.29900,-0.08150,0.29160,-0.13410,0.27690,-0.18420,0.25510,-0.23080,0.22670,-0.27310,0.19220,-0.31030,0.15230,-0.34180,0.10770,-0.36690,0.05920,-0.38520,0.00780,-0.39630,-0.04570,-0.40000,-0.10000,-0.40000,-0.30000,0*%
%ADD109T109*%
%ADD105R,1.52400X1.52400*%
%ADD121R,1.60000X1.60000*%
%ADD10C,0.12700*%
%AMT111*0 Bullet Pad at angle 180*4,1,26,0.40000,0.30000,-0.40000,0.30000,-0.40000,0.10000,-0.39630,0.04550,-0.38520,-0.00800,-0.36690,-0.05940,-0.34180,-0.10790,-0.31030,-0.15250,-0.27300,-0.19240,-0.23060,-0.22680,-0.18400,-0.25520,-0.13390,-0.27690,-0.08130,-0.29160,-0.02720,-0.29900,0.02740,-0.29900,0.08150,-0.29160,0.13410,-0.27690,0.18420,-0.25510,0.23080,-0.22670,0.27310,-0.19220,0.31030,-0.15230,0.34180,-0.10770,0.36690,-0.05920,0.38520,-0.00780,0.39630,0.04570,0.40000,0.10000,0.40000,0.30000,0*%
%ADD111T111*%
%ADD72C,0.20000*%
%ADD73C,0.30000*%
%ADD85C,0.60000*%
%ADD110C,0.80000*%
%ADD83C,1.00000*%
%ADD106C,1.52400*%
%ADD82C,1.52400*%
%ADD103C,1.60000*%
%ADD108C,5.25000*%
X0Y0D02*
D02*
D10*
X60650Y44140D02*
X611180D01*
Y886770*
X60650*
Y44140*
X94615Y106990D02*
G75*
G02Y49220J-28885D01*
G01*
G75*
G02Y106990J28885*
G01*
Y882230D02*
G75*
G02Y823380J-29425D01*
G01*
G75*
G02Y882230J29425*
G01*
X116380Y525716D02*
G75*
G02X109760Y535305I3635J9589D01*
G01*
G75*
G02X129080Y540100I10255*
G01*
Y546499*
X124225Y551354*
G75*
G02X109760Y560705I-4210J9351*
G01*
G75*
G02X130270I10255*
G01*
G75*
G02X129366Y556495I-10255*
G01*
X135285Y550575*
G75*
G02X136350Y548005I-2570J-2571*
G01*
Y540100*
G75*
G02X138780Y543124I9064J-4795*
G01*
Y552886*
G75*
G02Y568524I6634J7819*
G01*
Y578603*
G75*
G02Y594241I6634J7819*
G01*
Y604003*
G75*
G02Y619641I6634J7819*
G01*
Y629403*
G75*
G02Y645041I6634J7819*
G01*
Y654803*
G75*
G02Y670441I6634J7819*
G01*
Y687705*
G75*
G02X140723Y692397I6635J1*
G01*
X154693Y706367*
G75*
G02X159385Y708310I4691J-4692*
G01*
X178150*
Y724535*
G75*
G02X180093Y729227I6635J1*
G01*
X206090Y755223*
Y762436*
G75*
G02X212725Y780510I6635J7819*
G01*
G75*
G02X219360Y762436J-10255*
G01*
Y752475*
G75*
G02X217417Y747783I-6635J-1*
G01*
X191420Y721787*
Y703337*
G75*
G02X191475Y703098I-6635J-1653*
G01*
X203447Y691127*
G75*
G02X205390Y686435I-4692J-4691*
G01*
Y286593*
X265003Y226980*
X530017*
X545180Y242143*
Y286186*
G75*
G02Y301824I6635J7819*
G01*
Y349686*
G75*
G02X551815Y367760I6635J7819*
G01*
G75*
G02X558450Y349686J-10255*
G01*
Y301824*
G75*
G02Y286186I-6635J-7819*
G01*
Y239395*
G75*
G02X556507Y234703I-6635J-1*
G01*
X537457Y215653*
G75*
G02X532765Y213710I-4691J4692*
G01*
X262255*
G75*
G02X257563Y215653I-1J6635*
G01*
X194063Y279153*
G75*
G02X192120Y283845I4692J4691*
G01*
Y683687*
X180767Y695040*
X162133*
X152050Y684957*
Y670441*
G75*
G02Y654803I-6635J-7819*
G01*
Y645041*
G75*
G02Y629403I-6635J-7819*
G01*
Y619641*
G75*
G02Y604003I-6635J-7819*
G01*
Y594241*
G75*
G02Y578603I-6635J-7819*
G01*
Y568524*
G75*
G02Y552886I-6635J-7819*
G01*
Y543124*
G75*
G02X155670Y535305I-6635J-7819*
G01*
G75*
G02X136350Y530510I-10255*
G01*
Y324721*
X254871Y206200*
X389255*
G75*
G02X391825Y205135I-1J-3635*
G01*
X427385Y169575*
G75*
G02X428450Y167005I-2570J-2571*
G01*
Y151194*
G75*
G02X424815Y131350I-3635J-9589*
G01*
G75*
G02X421180Y151194J10255*
G01*
Y165499*
X387749Y198930*
X253365*
G75*
G02X250795Y199995I1J3635*
G01*
X130145Y320645*
G75*
G02X129080Y323215I2570J2571*
G01*
Y530510*
G75*
G02X123650Y525716I-9065J4795*
G01*
Y317101*
X252331Y188420*
X379095*
G75*
G02X381665Y187355I-1J-3635*
G01*
X401985Y167035*
G75*
G02X403050Y164465I-2570J-2571*
G01*
Y151194*
G75*
G02X399415Y131350I-3635J-9589*
G01*
G75*
G02X395780Y151194J10255*
G01*
Y162959*
X377589Y181150*
X250825*
G75*
G02X248255Y182215I1J3635*
G01*
X117445Y313025*
G75*
G02X116380Y315595I2570J2571*
G01*
Y525716*
X130270Y586422D02*
G75*
G02X109760I-10255D01*
G01*
G75*
G02X130270I10255*
G01*
Y611822D02*
G75*
G02X109760I-10255D01*
G01*
G75*
G02X130270I10255*
G01*
Y637222D02*
G75*
G02X109760I-10255D01*
G01*
G75*
G02X130270I10255*
G01*
Y662622D02*
G75*
G02X109760I-10255D01*
G01*
G75*
G02X130270I10255*
G01*
Y713422D02*
G75*
G02X109760I-10255D01*
G01*
G75*
G02X130270I10255*
G01*
Y738822D02*
G75*
G02X109760I-10255D01*
G01*
G75*
G02X130270I10255*
G01*
Y764222D02*
G75*
G02X109760I-10255D01*
G01*
G75*
G02X130270I10255*
G01*
X130810Y688022D02*
G75*
G02X109220I-10795D01*
G01*
G75*
G02X130810I10795*
G01*
X181610Y535305D02*
G75*
G02X160020I-10795D01*
G01*
G75*
G02X181610I10795*
G01*
Y560705D02*
G75*
G02X160020I-10795D01*
G01*
G75*
G02X181610I10795*
G01*
Y586422D02*
G75*
G02X160020I-10795D01*
G01*
G75*
G02X181610I10795*
G01*
Y611822D02*
G75*
G02X160020I-10795D01*
G01*
G75*
G02X181610I10795*
G01*
Y637222D02*
G75*
G02X160020I-10795D01*
G01*
G75*
G02X181610I10795*
G01*
Y662622D02*
G75*
G02X160020I-10795D01*
G01*
G75*
G02X181610I10795*
G01*
X187325Y759460D02*
G75*
G02Y781050J10795D01*
G01*
G75*
G02Y759460J-10795*
G01*
X220772Y693687D02*
G75*
G02X210170Y700722I-2967J7035D01*
G01*
G75*
G02X220772Y707757I7635*
G01*
X243714*
X406153Y870197*
G75*
G02X410845Y872140I4691J-4692*
G01*
X553880*
Y876140*
X575150*
Y854870*
X553880*
Y858870*
X413593*
X252539Y697816*
Y685324*
G75*
G02X250596Y680632I-6635J-1*
G01*
X226980Y657017*
Y295483*
X265003Y257460*
X441117*
X468980Y285323*
Y286186*
G75*
G02X475615Y304260I6635J7819*
G01*
G75*
G02X482250Y286186J-10255*
G01*
Y282575*
G75*
G02X480307Y277883I-6635J-1*
G01*
X448557Y246133*
G75*
G02X443865Y244190I-4691J4692*
G01*
X262255*
G75*
G02X257563Y246133I-1J6635*
G01*
X215653Y288043*
G75*
G02X213710Y292735I4692J4691*
G01*
Y659765*
G75*
G02X215653Y664457I6635J1*
G01*
X239269Y688072*
Y693687*
X220772*
X268780Y519494D02*
Y530999D01*
G75*
G02X266780Y535305I3635J4306*
G01*
G75*
G02X278050I5635*
G01*
G75*
G02X276050Y530999I-5635*
G01*
Y519494*
G75*
G02X281480Y514700I-3635J-9589*
G01*
Y522605*
G75*
G02X282545Y525175I3635J-1*
G01*
X289100Y531731*
Y562749*
G75*
G02X287100Y567055I3635J4306*
G01*
G75*
G02X298370I5635*
G01*
G75*
G02X296370Y562749I-5635*
G01*
Y530225*
G75*
G02X295305Y527655I-3635J1*
G01*
X288750Y521099*
Y514700*
G75*
G02X306880I9065J-4795*
G01*
Y522605*
G75*
G02X307945Y525175I3635J-1*
G01*
X315770Y533001*
Y552589*
G75*
G02X313770Y556895I3635J4306*
G01*
G75*
G02X325040I5635*
G01*
G75*
G02X323040Y552589I-5635*
G01*
Y531495*
G75*
G02X321975Y528925I-3635J1*
G01*
X314150Y521099*
Y514700*
G75*
G02X323215Y520160I9065J-4795*
G01*
G75*
G02Y499650J-10255*
G01*
G75*
G02X314150Y505110J10255*
G01*
Y397111*
X325785Y385475*
G75*
G02X326850Y382905I-2570J-2571*
G01*
Y367094*
G75*
G02X332280Y362300I-3635J-9589*
G01*
Y471805*
G75*
G02X333345Y474375I3635J-1*
G01*
X344980Y486011*
Y500316*
G75*
G02Y519494I3635J9589*
G01*
Y572909*
G75*
G02X342980Y577215I3635J4306*
G01*
G75*
G02X354250I5635*
G01*
G75*
G02X352250Y572909I-5635*
G01*
Y519494*
G75*
G02X357680Y514700I-3635J-9589*
G01*
Y532269*
G75*
G02X355680Y536575I3635J4306*
G01*
G75*
G02X366950I5635*
G01*
G75*
G02X364950Y532269I-5635*
G01*
Y514700*
G75*
G02X383080I9065J-4795*
G01*
Y533799*
X379065Y537815*
G75*
G02X378000Y540385I2570J2571*
G01*
Y645299*
G75*
G02Y653911I3635J4306*
G01*
Y658259*
X363825Y672435*
G75*
G02X362760Y675005I2570J2571*
G01*
Y685007*
G75*
G02X361030Y689475I4905J4468*
G01*
Y694975*
G75*
G02X364030Y700526I6635*
G01*
Y701179*
G75*
G02X362030Y705485I3635J4306*
G01*
G75*
G02X373300I5635*
G01*
G75*
G02X371300Y701179I-5635*
G01*
Y700526*
G75*
G02X374300Y694975I-3635J-5551*
G01*
Y689475*
G75*
G02X370030Y683276I-6635*
G01*
Y676511*
X384205Y662335*
G75*
G02X385270Y659765I-2570J-2571*
G01*
Y653911*
G75*
G02Y645299I-3635J-4306*
G01*
Y541891*
X389285Y537875*
G75*
G02X390350Y535305I-2570J-2571*
G01*
Y514700*
G75*
G02X408480I9065J-4795*
G01*
Y533799*
X396845Y545435*
G75*
G02X395780Y548005I2570J2571*
G01*
Y645299*
G75*
G02Y653911I3635J4306*
G01*
Y665879*
X390495Y671165*
G75*
G02X389430Y673735I2570J2571*
G01*
Y683924*
G75*
G02X386430Y689475I3635J5551*
G01*
Y694975*
G75*
G02X389430Y700526I6635*
G01*
Y707529*
G75*
G02X387430Y711835I3635J4306*
G01*
G75*
G02X398700I5635*
G01*
G75*
G02X396700Y707529I-5635*
G01*
Y700526*
G75*
G02X399700Y694975I-3635J-5551*
G01*
Y689475*
G75*
G02X396700Y683924I-6635*
G01*
Y675241*
X401985Y669955*
G75*
G02X403050Y667385I-2570J-2571*
G01*
Y653911*
G75*
G02Y645299I-3635J-4306*
G01*
Y549511*
X414685Y537875*
G75*
G02X415750Y535305I-2570J-2571*
G01*
Y514700*
G75*
G02X433880I9065J-4795*
G01*
Y533799*
X415895Y551785*
G75*
G02X414830Y554355I2570J2571*
G01*
Y645299*
G75*
G02Y653911I3635J4306*
G01*
Y683924*
G75*
G02X411830Y689475I3635J5551*
G01*
Y694975*
G75*
G02X414830Y700526I6635*
G01*
Y713879*
G75*
G02X412830Y718185I3635J4306*
G01*
G75*
G02X424100I5635*
G01*
G75*
G02X422100Y713879I-5635*
G01*
Y700526*
G75*
G02X425100Y694975I-3635J-5551*
G01*
Y689475*
G75*
G02X422100Y683924I-6635*
G01*
Y653911*
G75*
G02Y645299I-3635J-4306*
G01*
Y555861*
X440085Y537875*
G75*
G02X441150Y535305I-2570J-2571*
G01*
Y514700*
G75*
G02X459280I9065J-4795*
G01*
Y533799*
X441295Y551785*
G75*
G02X440230Y554355I2570J2571*
G01*
Y645299*
G75*
G02Y653911I3635J4306*
G01*
Y680564*
G75*
G02Y682146I3636J791*
G01*
Y683924*
G75*
G02X437230Y689475I3635J5551*
G01*
Y694975*
G75*
G02X440230Y700526I6635*
G01*
Y721499*
G75*
G02X438230Y725805I3635J4306*
G01*
G75*
G02X449500I5635*
G01*
G75*
G02X447500Y721499I-5635*
G01*
Y700526*
G75*
G02X450500Y694975I-3635J-5551*
G01*
Y689475*
G75*
G02X447500Y683924I-6635*
G01*
Y682146*
G75*
G02Y680564I-3637J-791*
G01*
Y653911*
G75*
G02Y645299I-3635J-4306*
G01*
Y555861*
X465485Y537875*
G75*
G02X466550Y535305I-2570J-2571*
G01*
Y514700*
G75*
G02X475615Y520160I9065J-4795*
G01*
G75*
G02Y499650J-10255*
G01*
G75*
G02X466550Y505110J10255*
G01*
Y395605*
G75*
G02X465485Y393035I-3635J1*
G01*
X453850Y381399*
Y367094*
G75*
G02X450215Y347250I-3635J-9589*
G01*
G75*
G02X446580Y367094J10255*
G01*
Y382905*
G75*
G02X447645Y385475I3635J-1*
G01*
X459280Y397111*
Y505110*
G75*
G02X441150I-9065J4795*
G01*
Y394335*
G75*
G02X440085Y391765I-3635J1*
G01*
X428450Y380129*
Y367094*
G75*
G02X424815Y347250I-3635J-9589*
G01*
G75*
G02X421180Y367094J10255*
G01*
Y381635*
G75*
G02X422245Y384205I3635J-1*
G01*
X433880Y395841*
Y505110*
G75*
G02X415750I-9065J4795*
G01*
Y395605*
G75*
G02X414685Y393035I-3635J1*
G01*
X403050Y381399*
Y367094*
G75*
G02X399415Y347250I-3635J-9589*
G01*
G75*
G02X395780Y367094J10255*
G01*
Y382905*
G75*
G02X396845Y385475I3635J-1*
G01*
X408480Y397111*
Y505110*
G75*
G02X390350I-9065J4795*
G01*
Y395605*
G75*
G02X389285Y393035I-3635J1*
G01*
X377650Y381399*
Y367094*
G75*
G02X374015Y347250I-3635J-9589*
G01*
G75*
G02X370380Y367094J10255*
G01*
Y382905*
G75*
G02X371445Y385475I3635J-1*
G01*
X383080Y397111*
Y505110*
G75*
G02X364950I-9065J4795*
G01*
Y396875*
G75*
G02X363885Y394305I-3635J1*
G01*
X352250Y382669*
Y367094*
G75*
G02X348615Y347250I-3635J-9589*
G01*
G75*
G02X339550Y352710J10255*
G01*
Y298800*
G75*
G02X348615Y304260I9065J-4795*
G01*
G75*
G02Y283750J-10255*
G01*
G75*
G02X339550Y289210J10255*
G01*
Y272911*
G75*
G02X341550Y268605I-3635J-4306*
G01*
G75*
G02X330280I-5635*
G01*
G75*
G02X332280Y272911I5635*
G01*
Y289210*
G75*
G02X323215Y283750I-9065J4795*
G01*
G75*
G02Y304260J10255*
G01*
G75*
G02X332280Y298800J-10255*
G01*
Y352710*
G75*
G02X323215Y347250I-9065J4795*
G01*
G75*
G02X319580Y367094J10255*
G01*
Y381399*
X307945Y393035*
G75*
G02X306880Y395605I2570J2571*
G01*
Y505110*
G75*
G02X288750I-9065J4795*
G01*
Y397111*
X300385Y385475*
G75*
G02X301450Y382905I-2570J-2571*
G01*
Y367094*
G75*
G02X297815Y347250I-3635J-9589*
G01*
G75*
G02X294180Y367094J10255*
G01*
Y381399*
X282545Y393035*
G75*
G02X281480Y395605I2570J2571*
G01*
Y505110*
G75*
G02X272415Y499650I-9065J4795*
G01*
G75*
G02X268780Y519494J10255*
G01*
X272415Y131350D02*
G75*
G02Y151860J10255D01*
G01*
G75*
G02Y131350J-10255*
G01*
Y283750D02*
G75*
G02Y304260J10255D01*
G01*
G75*
G02Y283750J-10255*
G01*
Y347250D02*
G75*
G02Y367760J10255D01*
G01*
G75*
G02Y347250J-10255*
G01*
X274860Y776605D02*
G75*
G02X295370I10255D01*
G01*
G75*
G02X274860I-10255*
G01*
X278480Y809824D02*
Y819586D01*
G75*
G02X285115Y837660I6635J7819*
G01*
G75*
G02X291750Y819586J-10255*
G01*
Y809824*
G75*
G02X295370Y802005I-6635J-7819*
G01*
G75*
G02X274860I-10255*
G01*
G75*
G02X278480Y809824I10254*
G01*
X297815Y131350D02*
G75*
G02Y151860J10255D01*
G01*
G75*
G02Y131350J-10255*
G01*
Y283750D02*
G75*
G02Y304260J10255D01*
G01*
G75*
G02Y283750J-10255*
G01*
X310515Y838200D02*
G75*
G02Y816610J-10795D01*
G01*
G75*
G02Y838200J10795*
G01*
X323215Y131350D02*
G75*
G02Y151860J10255D01*
G01*
G75*
G02Y131350J-10255*
G01*
X348615D02*
G75*
G02Y151860J10255D01*
G01*
G75*
G02Y131350J-10255*
G01*
X374015D02*
G75*
G02Y151860J10255D01*
G01*
G75*
G02Y131350J-10255*
G01*
Y283750D02*
G75*
G02Y304260J10255D01*
G01*
G75*
G02Y283750J-10255*
G01*
X399415D02*
G75*
G02Y304260J10255D01*
G01*
G75*
G02Y283750J-10255*
G01*
X424815D02*
G75*
G02Y304260J10255D01*
G01*
G75*
G02Y283750J-10255*
G01*
X439259Y819050D02*
X462885Y842675D01*
G75*
G02X465455Y843740I2571J-2570*
G01*
X518004*
G75*
G02X519586I791J-3637*
G01*
X554521*
G75*
G02X575150Y840105I9994J-3635*
G01*
G75*
G02X554521Y836470I-10635*
G01*
X520301*
X516080Y832249*
Y818036*
G75*
G02Y816454I-3637J-791*
G01*
Y549511*
X545431Y520160*
X562070*
Y499650*
X541560*
Y513749*
X509875Y545435*
G75*
G02X508810Y548005I2570J2571*
G01*
Y816454*
G75*
G02Y818036I3636J791*
G01*
Y833755*
G75*
G02X509875Y836325I3635J-1*
G01*
X510019Y836470*
X466961*
X444400Y813909*
G75*
G02X444420Y813435I-5612J-474*
G01*
G75*
G02X433150I-5635*
G01*
G75*
G02X439259Y819050I5635*
G01*
X450215Y131350D02*
G75*
G02Y151860J10255D01*
G01*
G75*
G02Y131350J-10255*
G01*
Y283750D02*
G75*
G02Y304260J10255D01*
G01*
G75*
G02Y283750J-10255*
G01*
X459601Y794560D02*
G75*
G02X449660Y798195I-4306J3635D01*
G01*
G75*
G02X459601Y801830I5635*
G01*
X495439*
G75*
G02X505380Y798195I4306J-3635*
G01*
G75*
G02X503380Y793889I-5635*
G01*
Y545701*
X513745Y535335*
G75*
G02X514810Y532765I-2570J-2571*
G01*
Y526651*
X522205Y519256*
G75*
G02X526415Y520160I4210J-9351*
G01*
G75*
G02Y499650J-10255*
G01*
G75*
G02X517064Y514115J10255*
G01*
X508605Y522575*
G75*
G02X507540Y525145I2570J2571*
G01*
Y531259*
X497175Y541625*
G75*
G02X496110Y544195I2570J2571*
G01*
Y793889*
G75*
G02X495439Y794560I3636J4307*
G01*
X459601*
X462630Y689475D02*
Y694975D01*
G75*
G02X465630Y700526I6635*
G01*
Y702945*
G75*
G02X466695Y705515I3635J-1*
G01*
X469235Y708055*
G75*
G02X471805Y709120I2571J-2570*
G01*
X476885*
G75*
G02X479455Y708055I-1J-3635*
G01*
X481995Y705515*
G75*
G02X483060Y702945I-2570J-2571*
G01*
Y700901*
G75*
G02X484680Y698629I-3636J-4306*
G01*
Y721499*
G75*
G02X482680Y725805I3635J4306*
G01*
G75*
G02X493950I5635*
G01*
G75*
G02X491950Y721499I-5635*
G01*
Y536811*
X503585Y525175*
G75*
G02X504650Y522605I-2570J-2571*
G01*
Y519494*
G75*
G02X501015Y499650I-3635J-9589*
G01*
G75*
G02X497380Y519494J10255*
G01*
Y521099*
X485745Y532735*
G75*
G02X484680Y535305I2570J2571*
G01*
Y694561*
G75*
G02X475900Y692199I-5255J2034*
G01*
Y689475*
G75*
G02X472900Y683924I-6635*
G01*
Y600571*
G75*
G02X474900Y596265I-3635J-4306*
G01*
G75*
G02X463630I-5635*
G01*
G75*
G02X465630Y600571I5635*
G01*
Y683924*
G75*
G02X462630Y689475I3635J5551*
G01*
X475615Y131350D02*
G75*
G02Y151860J10255D01*
G01*
G75*
G02Y131350J-10255*
G01*
Y347250D02*
G75*
G02Y367760J10255D01*
G01*
G75*
G02Y347250J-10255*
G01*
X501015Y131350D02*
G75*
G02Y151860J10255D01*
G01*
G75*
G02Y131350J-10255*
G01*
Y283750D02*
G75*
G02Y304260J10255D01*
G01*
G75*
G02Y283750J-10255*
G01*
Y347250D02*
G75*
G02Y367760J10255D01*
G01*
G75*
G02Y347250J-10255*
G01*
X510080Y244971D02*
Y268109D01*
G75*
G02X508080Y272415I3635J4306*
G01*
G75*
G02X519350I5635*
G01*
G75*
G02X517350Y268109I-5635*
G01*
Y244971*
G75*
G02X519350Y240665I-3635J-4306*
G01*
G75*
G02X508080I-5635*
G01*
G75*
G02X510080Y244971I5635*
G01*
X526415Y131350D02*
G75*
G02Y151860J10255D01*
G01*
G75*
G02Y131350J-10255*
G01*
Y283210D02*
G75*
G02Y304800J10795D01*
G01*
G75*
G02Y283210J-10795*
G01*
Y346710D02*
G75*
G02Y368300J10795D01*
G01*
G75*
G02Y346710J-10795*
G01*
X527400Y817277D02*
G75*
G02X526400Y821055I6636J3778D01*
G01*
G75*
G02X541670I7635*
G01*
G75*
G02X540670Y817277I-7636*
G01*
Y675213*
X546943Y668940*
X556204*
G75*
G02X575150Y662305I8311J-6635*
G01*
G75*
G02X556204Y655670I-10635*
G01*
X544195*
G75*
G02X539503Y657613I-1J6635*
G01*
X529343Y667773*
G75*
G02X527400Y672465I4692J4691*
G01*
Y817277*
X562070Y131350D02*
X541560D01*
Y151860*
X562070*
Y131350*
X575150Y586105D02*
G75*
G02X553880I-10635D01*
G01*
G75*
G02X575150I10635*
G01*
Y611505D02*
G75*
G02X553880I-10635D01*
G01*
G75*
G02X575150I10635*
G01*
Y636905D02*
G75*
G02X553880I-10635D01*
G01*
G75*
G02X575150I10635*
G01*
Y687705D02*
G75*
G02X553880I-10635D01*
G01*
G75*
G02X575150I10635*
G01*
Y713105D02*
G75*
G02X553880I-10635D01*
G01*
G75*
G02X575150I10635*
G01*
Y738505D02*
G75*
G02X553880I-10635D01*
G01*
G75*
G02X575150I10635*
G01*
Y789305D02*
G75*
G02X553880I-10635D01*
G01*
G75*
G02X575150I10635*
G01*
Y814705D02*
G75*
G02X553880I-10635D01*
G01*
G75*
G02X575150I10635*
G01*
X575690Y560705D02*
G75*
G02X553340I-11175D01*
G01*
G75*
G02X575690I11175*
G01*
Y763905D02*
G75*
G02X553340I-11175D01*
G01*
G75*
G02X575690I11175*
G01*
X577215Y106990D02*
G75*
G02Y49220J-28885D01*
G01*
G75*
G02Y106990J28885*
G01*
X600550Y560705D02*
G75*
G02X579280I-10635D01*
G01*
G75*
G02X600550I10635*
G01*
Y586105D02*
G75*
G02X579280I-10635D01*
G01*
G75*
G02X600550I10635*
G01*
Y611505D02*
G75*
G02X579280I-10635D01*
G01*
G75*
G02X600550I10635*
G01*
Y662305D02*
G75*
G02X579280I-10635D01*
G01*
G75*
G02X600550I10635*
G01*
Y687705D02*
G75*
G02X579280I-10635D01*
G01*
G75*
G02X600550I10635*
G01*
Y738505D02*
G75*
G02X579280I-10635D01*
G01*
G75*
G02X600550I10635*
G01*
Y763905D02*
G75*
G02X579280I-10635D01*
G01*
G75*
G02X600550I10635*
G01*
Y789305D02*
G75*
G02X579280I-10635D01*
G01*
G75*
G02X600550I10635*
G01*
Y840105D02*
G75*
G02X579280I-10635D01*
G01*
G75*
G02X600550I10635*
G01*
Y865505D02*
G75*
G02X579280I-10635D01*
G01*
G75*
G02X600550I10635*
G01*
X601090Y636905D02*
G75*
G02X578740I-11175D01*
G01*
G75*
G02X601090I11175*
G01*
Y713105D02*
G75*
G02X578740I-11175D01*
G01*
G75*
G02X601090I11175*
G01*
Y814705D02*
G75*
G02X578740I-11175D01*
G01*
G75*
G02X601090I11175*
G01*
X60650Y78105D02*
G36*
Y44140D01*
X611180*
Y78105*
X606100*
G75*
G02X577215Y49220I-28885*
G01*
G75*
G02X548330Y78105J28885*
G01*
X123500*
G75*
G02X94615Y49220I-28885*
G01*
G75*
G02X65730Y78105J28885*
G01*
X60650*
G37*
X65730D02*
G36*
G75*
G02X94615Y106990I28885D01*
G01*
G75*
G02X123500Y78105J-28885*
G01*
X548330*
G75*
G02X577215Y106990I28885*
G01*
G75*
G02X606100Y78105J-28885*
G01*
X611180*
Y141605*
X562070*
Y131350*
X541560*
Y141605*
X536670*
G75*
G02X526415Y131350I-10255*
G01*
G75*
G02X516160Y141605J10255*
G01*
X511270*
G75*
G02X501015Y131350I-10255*
G01*
G75*
G02X490760Y141605J10255*
G01*
X485870*
G75*
G02X475615Y131350I-10255*
G01*
G75*
G02X465360Y141605J10255*
G01*
X460470*
G75*
G02X450215Y131350I-10255*
G01*
G75*
G02X439960Y141605J10255*
G01*
X435070*
G75*
G02X424815Y131350I-10255*
G01*
G75*
G02X421180Y151194J10255*
G01*
Y165499*
X387749Y198930*
X253365*
G75*
G02X250795Y199995I1J3635*
G01*
X130145Y320645*
G75*
G02X129080Y323215I2570J2571*
G01*
Y530510*
G75*
G02X123650Y525716I-9065J4795*
G01*
Y317101*
X252331Y188420*
X379095*
G75*
G02X381665Y187355I-1J-3635*
G01*
X401985Y167035*
G75*
G02X403050Y164465I-2570J-2571*
G01*
Y151194*
G75*
G02X399415Y131350I-3635J-9589*
G01*
G75*
G02X389160Y141605J10255*
G01*
X384270*
G75*
G02X374015Y131350I-10255*
G01*
G75*
G02X363760Y141605J10255*
G01*
X358870*
G75*
G02X348615Y131350I-10255*
G01*
G75*
G02X338360Y141605J10255*
G01*
X333470*
G75*
G02X323215Y131350I-10255*
G01*
G75*
G02X312960Y141605J10255*
G01*
X308070*
G75*
G02X297815Y131350I-10255*
G01*
G75*
G02X287560Y141605J10255*
G01*
X282670*
G75*
G02X272415Y131350I-10255*
G01*
G75*
G02X262160Y141605J10255*
G01*
X60650*
Y78105*
X65730*
G37*
X60650Y852805D02*
G36*
Y840105D01*
X68072*
G75*
G02X65190Y852805I26543J12700*
G01*
X60650*
G37*
X65190D02*
G36*
G75*
G02X68072Y865505I29425D01*
G01*
X60650*
Y852805*
X65190*
G37*
X124040D02*
G36*
G75*
G02X121158Y840105I-29426J1D01*
G01*
X376061*
X388761Y852805*
X124040*
G37*
X388761D02*
G36*
X401461Y865505D01*
X121158*
G75*
G02X124040Y852805I-26544J-12701*
G01*
X388761*
G37*
X407528D02*
G36*
X394828Y840105D01*
X460315*
X462885Y842675*
G75*
G02X465455Y843740I2571J-2570*
G01*
X518004*
G75*
G02X519586I791J-3637*
G01*
X554521*
G75*
G02X575150Y840105I9994J-3635*
G01*
X579280*
G75*
G02X600550I10635*
G01*
X611180*
Y852805*
X407528*
G37*
X611180D02*
G36*
Y865505D01*
X600550*
G75*
G02X579280I-10635*
G01*
X575150*
Y854870*
X553880*
Y858870*
X413593*
X407528Y852805*
X611180*
G37*
X60650Y455930D02*
G36*
Y357505D01*
X116380*
Y455930*
X60650*
G37*
X116380D02*
G36*
Y525716D01*
G75*
G02X109760Y535305I3635J9589*
G01*
X60650*
Y455930*
X116380*
G37*
X205390D02*
G36*
Y357505D01*
X213710*
Y455930*
X205390*
G37*
X213710D02*
G36*
Y535305D01*
X205390*
Y455930*
X213710*
G37*
X226980D02*
G36*
Y357505D01*
X262160*
G75*
G02X272415Y367760I10255*
G01*
G75*
G02X282670Y357505J-10255*
G01*
X287560*
G75*
G02X294180Y367094I10255*
G01*
Y381399*
X282545Y393035*
G75*
G02X281480Y395605I2570J2571*
G01*
Y455930*
X226980*
G37*
X281480D02*
G36*
Y505110D01*
G75*
G02X272415Y499650I-9065J4795*
G01*
G75*
G02X268780Y519494J10255*
G01*
Y530999*
G75*
G02X266780Y535305I3635J4306*
G01*
X226980*
Y455930*
X281480*
G37*
X466550D02*
G36*
Y395605D01*
G75*
G02X465485Y393035I-3635J1*
G01*
X453850Y381399*
Y367094*
G75*
G02X460470Y357505I-3635J-9589*
G01*
X465360*
G75*
G02X475615Y367760I10255*
G01*
G75*
G02X485870Y357505J-10255*
G01*
X490760*
G75*
G02X501015Y367760I10255*
G01*
G75*
G02X511270Y357505J-10255*
G01*
X515620*
G75*
G02X526415Y368300I10795*
G01*
G75*
G02X537210Y357505J-10795*
G01*
X541560*
G75*
G02X551815Y367760I10255*
G01*
G75*
G02X562070Y357505J-10255*
G01*
X611180*
Y455930*
X466550*
G37*
X611180D02*
G36*
Y535305D01*
X530286*
X545431Y520160*
X562070*
Y499650*
X541560*
Y513749*
X520005Y535305*
X513774*
G75*
G02X514810Y532765I-2599J-2541*
G01*
Y526651*
X522205Y519256*
G75*
G02X526415Y520160I4210J-9351*
G01*
G75*
G02Y499650J-10255*
G01*
G75*
G02X517064Y514115J10255*
G01*
X508605Y522575*
G75*
G02X507540Y525145I2570J2571*
G01*
Y531259*
X503494Y535305*
X493456*
X503585Y525175*
G75*
G02X504650Y522605I-2570J-2571*
G01*
Y519494*
G75*
G02X501015Y499650I-3635J-9589*
G01*
G75*
G02X497380Y519494J10255*
G01*
Y521099*
X485745Y532735*
G75*
G02X484680Y535305I2570J2571*
G01*
X466550*
Y514700*
G75*
G02X475615Y520160I9065J-4795*
G01*
G75*
G02Y499650J-10255*
G01*
G75*
G02X466550Y505110J10255*
G01*
Y455930*
X611180*
G37*
X60650Y586422D02*
G36*
Y560705D01*
X109760*
G75*
G02X130270I10255*
G01*
G75*
G02X129366Y556495I-10255*
G01*
X135285Y550575*
G75*
G02X136350Y548005I-2570J-2571*
G01*
Y540100*
G75*
G02X138780Y543124I9064J-4795*
G01*
Y552886*
G75*
G02Y568524I6634J7819*
G01*
Y578603*
G75*
G02X135160Y586422I6634J7819*
G01*
X130270*
G75*
G02X109760I-10255*
G01*
X60650*
G37*
X109760D02*
G36*
G75*
G02X130270I10255D01*
G01*
X135160*
G75*
G02X138780Y594241I10254*
G01*
Y604003*
G75*
G02X135160Y611822I6634J7819*
G01*
X130270*
G75*
G02X109760I-10255*
G01*
X60650*
Y586422*
X109760*
G37*
X155670D02*
G36*
G75*
G02X152050Y578603I-10255D01*
G01*
Y568524*
G75*
G02X155670Y560705I-6635J-7819*
G01*
X160020*
G75*
G02X181610I10795*
G01*
X192120*
Y586422*
X181610*
G75*
G02X160020I-10795*
G01*
X155670*
G37*
X160020D02*
G36*
G75*
G02X181610I10795D01*
G01*
X192120*
Y611822*
X181610*
G75*
G02X160020I-10795*
G01*
X155670*
G75*
G02X152050Y604003I-10255*
G01*
Y594241*
G75*
G02X155670Y586422I-6635J-7819*
G01*
X160020*
G37*
X205390Y586425D02*
G36*
Y560705D01*
X213710*
Y586425*
X205390*
G37*
X213710D02*
G36*
Y611825D01*
X205390*
Y586425*
X213710*
G37*
X226980Y586422D02*
G36*
Y560705D01*
X289100*
Y562749*
G75*
G02X287100Y567055I3635J4306*
G01*
G75*
G02X298370I5635*
G01*
G75*
G02X296370Y562749I-5635*
G01*
Y530225*
G75*
G02X295305Y527655I-3635J1*
G01*
X288750Y521099*
Y514700*
G75*
G02X306880I9065J-4795*
G01*
Y522605*
G75*
G02X307945Y525175I3635J-1*
G01*
X315770Y533001*
Y552589*
G75*
G02X313770Y556895I3635J4306*
G01*
G75*
G02X325040I5635*
G01*
G75*
G02X323040Y552589I-5635*
G01*
Y531495*
G75*
G02X321975Y528925I-3635J1*
G01*
X314150Y521099*
Y514700*
G75*
G02X323215Y520160I9065J-4795*
G01*
G75*
G02Y499650J-10255*
G01*
G75*
G02X314150Y505110J10255*
G01*
Y397111*
X325785Y385475*
G75*
G02X326850Y382905I-2570J-2571*
G01*
Y367094*
G75*
G02X332280Y362300I-3635J-9589*
G01*
Y471805*
G75*
G02X333345Y474375I3635J-1*
G01*
X344980Y486011*
Y500316*
G75*
G02Y519494I3635J9589*
G01*
Y572909*
G75*
G02X342980Y577215I3635J4306*
G01*
G75*
G02X354250I5635*
G01*
G75*
G02X352250Y572909I-5635*
G01*
Y519494*
G75*
G02X357680Y514700I-3635J-9589*
G01*
Y532269*
G75*
G02X355680Y536575I3635J4306*
G01*
G75*
G02X366950I5635*
G01*
G75*
G02X364950Y532269I-5635*
G01*
Y514700*
G75*
G02X383080I9065J-4795*
G01*
Y533799*
X379065Y537815*
G75*
G02X378000Y540385I2570J2571*
G01*
Y586422*
X226980*
G37*
X378000Y586425D02*
G36*
Y611825D01*
X226980*
Y586425*
X378000*
G37*
X447500D02*
G36*
Y560705D01*
X484680*
Y586425*
X447500*
G37*
X484680Y586422D02*
G36*
Y694561D01*
G75*
G02X475900Y692199I-5255J2034*
G01*
Y689475*
G75*
G02X472900Y683924I-6635*
G01*
Y600571*
G75*
G02X474900Y596265I-3635J-4306*
G01*
G75*
G02X463630I-5635*
G01*
G75*
G02X465630Y600571I5635*
G01*
Y611822*
X447500*
Y586422*
X484680*
G37*
X491950Y586425D02*
G36*
Y560705D01*
X496110*
Y586425*
X491950*
G37*
X496110D02*
G36*
Y611825D01*
X491950*
Y586425*
X496110*
G37*
X503380D02*
G36*
Y560705D01*
X508810*
Y586425*
X503380*
G37*
X508810D02*
G36*
Y611825D01*
X503380*
Y586425*
X508810*
G37*
X516080Y586422D02*
G36*
Y560705D01*
X553340*
G75*
G02X575690I11175*
G01*
X579280*
G75*
G02X600550I10635*
G01*
X611180*
Y586422*
X600545*
G75*
G02X600550Y586105I-10631J-326*
G01*
G75*
G02X579280I-10635*
G01*
G75*
G02X579285Y586422I10629J-9*
G01*
X575145*
G75*
G02X575150Y586105I-10631J-326*
G01*
G75*
G02X553880I-10635*
G01*
G75*
G02X553885Y586422I10629J-9*
G01*
X516080*
G37*
X553885D02*
G36*
G75*
G02X575145I10630J-317D01*
G01*
X579285*
G75*
G02X600545I10630J-317*
G01*
X611180*
Y611822*
X600545*
G75*
G02X600550Y611505I-10631J-326*
G01*
G75*
G02X579280I-10635*
G01*
G75*
G02X579285Y611822I10629J-9*
G01*
X575145*
G75*
G02X575150Y611505I-10631J-326*
G01*
G75*
G02X553880I-10635*
G01*
G75*
G02X553885Y611822I10629J-9*
G01*
X516080*
Y586422*
X553885*
G37*
X109760Y611822D02*
G36*
G75*
G02X130270I10255D01*
G01*
X135160*
G75*
G02X138780Y619641I10254*
G01*
Y629403*
G75*
G02X135160Y637222I6634J7819*
G01*
X130270*
G75*
G02X109760I-10255*
G01*
X60650*
Y611822*
X109760*
G37*
X160020D02*
G36*
G75*
G02X181610I10795D01*
G01*
X192120*
Y637222*
X181610*
G75*
G02X160020I-10795*
G01*
X155670*
G75*
G02X152050Y629403I-10255*
G01*
Y619641*
G75*
G02X155670Y611822I-6635J-7819*
G01*
X160020*
G37*
X213710Y611825D02*
G36*
Y637225D01*
X205390*
Y611825*
X213710*
G37*
X378000D02*
G36*
Y637225D01*
X226980*
Y611825*
X378000*
G37*
X465630D02*
G36*
Y637225D01*
X447500*
Y611825*
X465630*
G37*
X496110D02*
G36*
Y637225D01*
X491950*
Y611825*
X496110*
G37*
X508810D02*
G36*
Y637225D01*
X503380*
Y611825*
X508810*
G37*
X553885Y611822D02*
G36*
G75*
G02X575145I10630J-317D01*
G01*
X579285*
G75*
G02X600545I10630J-317*
G01*
X611180*
Y637222*
X601086*
G75*
G02X601090Y636905I-11174J-300*
G01*
G75*
G02X578740I-11175*
G01*
G75*
G02X578744Y637222I11171J18*
G01*
X575145*
G75*
G02X575150Y636905I-10631J-326*
G01*
G75*
G02X553880I-10635*
G01*
G75*
G02X553885Y637222I10629J-9*
G01*
X516080*
Y611822*
X553885*
G37*
X109760Y637222D02*
G36*
G75*
G02X130270I10255D01*
G01*
X135160*
G75*
G02X138780Y645041I10254*
G01*
Y654803*
G75*
G02X135160Y662622I6634J7819*
G01*
X130270*
G75*
G02X109760I-10255*
G01*
X60650*
Y637222*
X109760*
G37*
X160020D02*
G36*
G75*
G02X181610I10795D01*
G01*
X192120*
Y662622*
X181610*
G75*
G02X160020I-10795*
G01*
X155670*
G75*
G02X152050Y654803I-10255*
G01*
Y645041*
G75*
G02X155670Y637222I-6635J-7819*
G01*
X160020*
G37*
X213710D02*
G36*
Y659765D01*
G75*
G02X214356Y662622I6635J1*
G01*
X205390*
Y637222*
X213710*
G37*
X378000D02*
G36*
Y645299D01*
G75*
G02Y653911I3635J4306*
G01*
Y658259*
X373637Y662622*
X232585*
X226980Y657017*
Y637222*
X378000*
G37*
X465630D02*
G36*
Y662622D01*
X447500*
Y653911*
G75*
G02Y645299I-3635J-4306*
G01*
Y637222*
X465630*
G37*
X496110Y637225D02*
G36*
Y662625D01*
X491950*
Y637225*
X496110*
G37*
X508810D02*
G36*
Y662625D01*
X503380*
Y637225*
X508810*
G37*
X553885Y637222D02*
G36*
G75*
G02X575145I10630J-317D01*
G01*
X578744*
G75*
G02X601086I11171J-317*
G01*
X611180*
Y662622*
X600545*
G75*
G02X600550Y662305I-10631J-326*
G01*
G75*
G02X579280I-10635*
G01*
G75*
G02X579285Y662622I10629J-9*
G01*
X575145*
G75*
G02X575150Y662305I-10631J-326*
G01*
G75*
G02X556204Y655670I-10635*
G01*
X544195*
G75*
G02X539503Y657613I-1J6635*
G01*
X534494Y662622*
X516080*
Y637222*
X553885*
G37*
X109760Y662622D02*
G36*
G75*
G02X130270I10255D01*
G01*
X135160*
G75*
G02X138780Y670441I10254*
G01*
Y687705*
G75*
G02X138787Y688022I6633J12*
G01*
X130810*
G75*
G02X109220I-10795*
G01*
X60650*
Y662622*
X109760*
G37*
X160020D02*
G36*
G75*
G02X181610I10795D01*
G01*
X192120*
Y683687*
X180767Y695040*
X162133*
X152050Y684957*
Y670441*
G75*
G02X155670Y662622I-6635J-7819*
G01*
X160020*
G37*
X214356D02*
G36*
G75*
G02X215653Y664457I5989J-2857D01*
G01*
X239219Y688022*
X205198*
G75*
G02X205390Y686435I-6444J-1585*
G01*
Y662622*
X214356*
G37*
X373637D02*
G36*
X363825Y672435D01*
G75*
G02X362760Y675005I2570J2571*
G01*
Y685007*
G75*
G02X361191Y688022I4905J4468*
G01*
X252539*
Y685324*
G75*
G02X250596Y680632I-6635J-1*
G01*
X232585Y662622*
X373637*
G37*
X465630D02*
G36*
Y683924D01*
G75*
G02X462791Y688022I3635J5551*
G01*
X450339*
G75*
G02X447500Y683924I-6474J1453*
G01*
Y682146*
G75*
G02Y680564I-3637J-791*
G01*
Y662622*
X465630*
G37*
X496110Y662625D02*
G36*
Y688025D01*
X491950*
Y662625*
X496110*
G37*
X508810D02*
G36*
Y688025D01*
X503380*
Y662625*
X508810*
G37*
X534494Y662622D02*
G36*
X529343Y667773D01*
G75*
G02X527400Y672465I4692J4691*
G01*
Y688022*
X516080*
Y662622*
X534494*
G37*
X579285D02*
G36*
G75*
G02X600545I10630J-317D01*
G01*
X611180*
Y688022*
X600545*
G75*
G02X600550Y687705I-10631J-326*
G01*
G75*
G02X579280I-10635*
G01*
G75*
G02X579285Y688022I10629J-9*
G01*
X575145*
G75*
G02X575150Y687705I-10631J-326*
G01*
G75*
G02X553880I-10635*
G01*
G75*
G02X553885Y688022I10629J-9*
G01*
X540670*
Y675213*
X546943Y668940*
X556204*
G75*
G02X575145Y662622I8311J-6635*
G01*
X579285*
G37*
X60650Y713422D02*
G36*
Y688022D01*
X109220*
G75*
G02X130810I10795*
G01*
X138787*
G75*
G02X140723Y692397I6628J-317*
G01*
X154693Y706367*
G75*
G02X159385Y708310I4691J-4692*
G01*
X178150*
Y713422*
X130270*
G75*
G02X109760I-10255*
G01*
X60650*
G37*
X109760D02*
G36*
G75*
G02X130270I10255D01*
G01*
X178150*
Y724535*
G75*
G02X180093Y729227I6635J1*
G01*
X189688Y738822*
X130270*
G75*
G02X109760I-10255*
G01*
X60650*
Y713422*
X109760*
G37*
X191420D02*
G36*
Y703337D01*
G75*
G02X191475Y703098I-6635J-1653*
G01*
X203447Y691127*
G75*
G02X205198Y688022I-4691J-4692*
G01*
X239219*
X239269Y688072*
Y693687*
X220772*
G75*
G02X210170Y700722I-2967J7035*
G01*
G75*
G02X220772Y707757I7635*
G01*
X243714*
X249379Y713422*
X191420*
G37*
X249379D02*
G36*
X274779Y738822D01*
X208456*
X191420Y721787*
Y713422*
X249379*
G37*
X268145D02*
G36*
X252539Y697816D01*
Y688022*
X361191*
G75*
G02X361030Y689475I6474J1453*
G01*
Y694975*
G75*
G02X364030Y700526I6635*
G01*
Y701179*
G75*
G02X362030Y705485I3635J4306*
G01*
G75*
G02X373300I5635*
G01*
G75*
G02X371300Y701179I-5635*
G01*
Y700526*
G75*
G02X374300Y694975I-3635J-5551*
G01*
Y689475*
G75*
G02X370030Y683276I-6635*
G01*
Y676511*
X384205Y662335*
G75*
G02X385270Y659765I-2570J-2571*
G01*
Y653911*
G75*
G02Y645299I-3635J-4306*
G01*
Y541891*
X389285Y537875*
G75*
G02X390350Y535305I-2570J-2571*
G01*
Y514700*
G75*
G02X408480I9065J-4795*
G01*
Y533799*
X396845Y545435*
G75*
G02X395780Y548005I2570J2571*
G01*
Y645299*
G75*
G02Y653911I3635J4306*
G01*
Y665879*
X390495Y671165*
G75*
G02X389430Y673735I2570J2571*
G01*
Y683924*
G75*
G02X386430Y689475I3635J5551*
G01*
Y694975*
G75*
G02X389430Y700526I6635*
G01*
Y707529*
G75*
G02X387430Y711835I3635J4306*
G01*
G75*
G02X387658Y713422I5635*
G01*
X268145*
G37*
X387658D02*
G36*
G75*
G02X398700Y711835I5407J-1587D01*
G01*
G75*
G02X396700Y707529I-5635*
G01*
Y700526*
G75*
G02X399700Y694975I-3635J-5551*
G01*
Y689475*
G75*
G02X396700Y683924I-6635*
G01*
Y675241*
X401985Y669955*
G75*
G02X403050Y667385I-2570J-2571*
G01*
Y653911*
G75*
G02Y645299I-3635J-4306*
G01*
Y549511*
X414685Y537875*
G75*
G02X415750Y535305I-2570J-2571*
G01*
Y514700*
G75*
G02X433880I9065J-4795*
G01*
Y533799*
X415895Y551785*
G75*
G02X414830Y554355I2570J2571*
G01*
Y645299*
G75*
G02Y653911I3635J4306*
G01*
Y683924*
G75*
G02X411830Y689475I3635J5551*
G01*
Y694975*
G75*
G02X414830Y700526I6635*
G01*
Y713879*
G75*
G02X412830Y718185I3635J4306*
G01*
G75*
G02X424100I5635*
G01*
G75*
G02X422100Y713879I-5635*
G01*
Y700526*
G75*
G02X425100Y694975I-3635J-5551*
G01*
Y689475*
G75*
G02X422100Y683924I-6635*
G01*
Y653911*
G75*
G02Y645299I-3635J-4306*
G01*
Y555861*
X440085Y537875*
G75*
G02X441150Y535305I-2570J-2571*
G01*
Y514700*
G75*
G02X459280I9065J-4795*
G01*
Y533799*
X441295Y551785*
G75*
G02X440230Y554355I2570J2571*
G01*
Y645299*
G75*
G02Y653911I3635J4306*
G01*
Y680564*
G75*
G02Y682146I3636J791*
G01*
Y683924*
G75*
G02X437230Y689475I3635J5551*
G01*
Y694975*
G75*
G02X440230Y700526I6635*
G01*
Y721499*
G75*
G02X438230Y725805I3635J4306*
G01*
G75*
G02X449500I5635*
G01*
G75*
G02X447500Y721499I-5635*
G01*
Y713422*
X484680*
Y721499*
G75*
G02X482680Y725805I3635J4306*
G01*
G75*
G02X493950I5635*
G01*
G75*
G02X491950Y721499I-5635*
G01*
Y713422*
X496110*
Y738822*
X293545*
X268145Y713422*
X387658*
G37*
X447500D02*
G36*
Y700526D01*
G75*
G02X450500Y694975I-3635J-5551*
G01*
Y689475*
G75*
G02X450339Y688022I-6635*
G01*
X462791*
G75*
G02X462630Y689475I6474J1453*
G01*
Y694975*
G75*
G02X465630Y700526I6635*
G01*
Y702945*
G75*
G02X466695Y705515I3635J-1*
G01*
X469235Y708055*
G75*
G02X471805Y709120I2571J-2570*
G01*
X476885*
G75*
G02X479455Y708055I-1J-3635*
G01*
X481995Y705515*
G75*
G02X483060Y702945I-2570J-2571*
G01*
Y700901*
G75*
G02X484680Y698629I-3636J-4306*
G01*
Y713422*
X447500*
G37*
X491950Y713425D02*
G36*
Y688025D01*
X496110*
Y713425*
X491950*
G37*
X503380D02*
G36*
Y688025D01*
X508810*
Y713425*
X503380*
G37*
X508810D02*
G36*
Y738825D01*
X503380*
Y713425*
X508810*
G37*
X516080D02*
G36*
Y688025D01*
X527400*
Y713425*
X516080*
G37*
X527400D02*
G36*
Y738825D01*
X516080*
Y713425*
X527400*
G37*
X540670Y713422D02*
G36*
Y688022D01*
X553885*
G75*
G02X575145I10630J-317*
G01*
X579285*
G75*
G02X600545I10630J-317*
G01*
X611180*
Y713422*
X601086*
G75*
G02X601090Y713105I-11174J-300*
G01*
G75*
G02X578740I-11175*
G01*
G75*
G02X578744Y713422I11171J18*
G01*
X575145*
G75*
G02X575150Y713105I-10631J-326*
G01*
G75*
G02X553880I-10635*
G01*
G75*
G02X553885Y713422I10629J-9*
G01*
X540670*
G37*
X553885D02*
G36*
G75*
G02X575145I10630J-317D01*
G01*
X578744*
G75*
G02X601086I11171J-317*
G01*
X611180*
Y738822*
X600545*
G75*
G02X600550Y738505I-10631J-326*
G01*
G75*
G02X579280I-10635*
G01*
G75*
G02X579285Y738822I10629J-9*
G01*
X575145*
G75*
G02X575150Y738505I-10631J-326*
G01*
G75*
G02X553880I-10635*
G01*
G75*
G02X553885Y738822I10629J-9*
G01*
X540670*
Y713422*
X553885*
G37*
X109760Y738822D02*
G36*
G75*
G02X130270I10255D01*
G01*
X189688*
X206090Y755223*
Y762436*
G75*
G02X204433Y764222I6636J7818*
G01*
X196277*
G75*
G02X187325Y759460I-8952J6033*
G01*
G75*
G02X178373Y764222J10795*
G01*
X130270*
G75*
G02X109760I-10255*
G01*
X60650*
Y738822*
X109760*
G37*
X274779D02*
G36*
X300179Y764222D01*
X221017*
G75*
G02X219360Y762436I-8293J6032*
G01*
Y752475*
G75*
G02X217417Y747783I-6635J-1*
G01*
X208456Y738822*
X274779*
G37*
X496110Y738825D02*
G36*
Y764225D01*
X318945*
X293545Y738825*
X496110*
G37*
X508810D02*
G36*
Y764225D01*
X503380*
Y738825*
X508810*
G37*
X527400D02*
G36*
Y764225D01*
X516080*
Y738825*
X527400*
G37*
X553885Y738822D02*
G36*
G75*
G02X575145I10630J-317D01*
G01*
X579285*
G75*
G02X600545I10630J-317*
G01*
X611180*
Y764222*
X600545*
G75*
G02X600550Y763905I-10631J-326*
G01*
G75*
G02X579280I-10635*
G01*
G75*
G02X579285Y764222I10629J-9*
G01*
X575686*
G75*
G02X575690Y763905I-11174J-300*
G01*
G75*
G02X553340I-11175*
G01*
G75*
G02X553344Y764222I11171J18*
G01*
X540670*
Y738822*
X553885*
G37*
X109760Y764222D02*
G36*
G75*
G02X130270I10255D01*
G01*
X178373*
G75*
G02X178595Y776605I8952J6033*
G01*
X60650*
Y764222*
X109760*
G37*
X204433Y764225D02*
G36*
G75*
G02X204673Y776605I8290J6032D01*
G01*
X196055*
G75*
G02X196277Y764225I-8728J-6349*
G01*
X204433*
G37*
X300179Y764222D02*
G36*
X312562Y776605D01*
X295370*
G75*
G02X274860I-10255*
G01*
X220777*
G75*
G02X221017Y764222I-8052J-6350*
G01*
X300179*
G37*
X496110Y764225D02*
G36*
Y776605D01*
X331328*
X318945Y764225*
X496110*
G37*
X508810D02*
G36*
Y776605D01*
X503380*
Y764225*
X508810*
G37*
X527400D02*
G36*
Y776605D01*
X516080*
Y764225*
X527400*
G37*
X553344Y764222D02*
G36*
G75*
G02X575686I11171J-317D01*
G01*
X579285*
G75*
G02X600545I10630J-317*
G01*
X611180*
Y776605*
X540670*
Y764222*
X553344*
G37*
X109760Y535305D02*
G36*
G75*
G02X129080Y540100I10255D01*
G01*
Y546499*
X124225Y551354*
G75*
G02X109760Y560705I-4210J9351*
G01*
X60650*
Y535305*
X109760*
G37*
X155670D02*
G36*
G75*
G02X136350Y530510I-10255D01*
G01*
Y324721*
X254871Y206200*
X389255*
G75*
G02X391825Y205135I-1J-3635*
G01*
X427385Y169575*
G75*
G02X428450Y167005I-2570J-2571*
G01*
Y151194*
G75*
G02X435070Y141605I-3635J-9589*
G01*
X439960*
G75*
G02X450215Y151860I10255*
G01*
G75*
G02X460470Y141605J-10255*
G01*
X465360*
G75*
G02X475615Y151860I10255*
G01*
G75*
G02X485870Y141605J-10255*
G01*
X490760*
G75*
G02X501015Y151860I10255*
G01*
G75*
G02X511270Y141605J-10255*
G01*
X516160*
G75*
G02X526415Y151860I10255*
G01*
G75*
G02X536670Y141605J-10255*
G01*
X541560*
Y151860*
X562070*
Y141605*
X611180*
Y256540*
X558450*
Y239395*
G75*
G02X556507Y234703I-6635J-1*
G01*
X537457Y215653*
G75*
G02X532765Y213710I-4691J4692*
G01*
X262255*
G75*
G02X257563Y215653I-1J6635*
G01*
X194063Y279153*
G75*
G02X192120Y283845I4692J4691*
G01*
Y535305*
X181610*
G75*
G02X160020I-10795*
G01*
X155670*
G37*
X160020D02*
G36*
G75*
G02X181610I10795D01*
G01*
X192120*
Y560705*
X181610*
G75*
G02X160020I-10795*
G01*
X155670*
G75*
G02X152050Y552886I-10255*
G01*
Y543124*
G75*
G02X155670Y535305I-6635J-7819*
G01*
X160020*
G37*
X213710D02*
G36*
Y560705D01*
X205390*
Y535305*
X213710*
G37*
X266780D02*
G36*
G75*
G02X278050I5635D01*
G01*
G75*
G02X276050Y530999I-5635*
G01*
Y519494*
G75*
G02X281480Y514700I-3635J-9589*
G01*
Y522605*
G75*
G02X282545Y525175I3635J-1*
G01*
X289100Y531731*
Y560705*
X226980*
Y535305*
X266780*
G37*
X484680D02*
G36*
Y560705D01*
X447500*
Y555861*
X465485Y537875*
G75*
G02X466550Y535305I-2570J-2571*
G01*
X484680*
G37*
X503494D02*
G36*
X497175Y541625D01*
G75*
G02X496110Y544195I2570J2571*
G01*
Y560705*
X491950*
Y536811*
X493456Y535305*
X503494*
G37*
X520005D02*
G36*
X509875Y545435D01*
G75*
G02X508810Y548005I2570J2571*
G01*
Y560705*
X503380*
Y545701*
X513745Y535335*
G75*
G02X513774Y535305I-2598J-2540*
G01*
X520005*
G37*
X611180D02*
G36*
Y560705D01*
X600550*
G75*
G02X579280I-10635*
G01*
X575690*
G75*
G02X553340I-11175*
G01*
X516080*
Y549511*
X530286Y535305*
X611180*
G37*
X262160Y141605D02*
G36*
G75*
G02X272415Y151860I10255D01*
G01*
G75*
G02X282670Y141605J-10255*
G01*
X287560*
G75*
G02X297815Y151860I10255*
G01*
G75*
G02X308070Y141605J-10255*
G01*
X312960*
G75*
G02X323215Y151860I10255*
G01*
G75*
G02X333470Y141605J-10255*
G01*
X338360*
G75*
G02X348615Y151860I10255*
G01*
G75*
G02X358870Y141605J-10255*
G01*
X363760*
G75*
G02X374015Y151860I10255*
G01*
G75*
G02X384270Y141605J-10255*
G01*
X389160*
G75*
G02X395780Y151194I10255*
G01*
Y162959*
X377589Y181150*
X250825*
G75*
G02X248255Y182215I1J3635*
G01*
X173930Y256540*
X60650*
Y141605*
X262160*
G37*
X60650Y294005D02*
G36*
Y256540D01*
X173930*
X136465Y294005*
X60650*
G37*
X136465D02*
G36*
X117445Y313025D01*
G75*
G02X116380Y315595I2570J2571*
G01*
Y357505*
X60650*
Y294005*
X136465*
G37*
X205390D02*
G36*
Y286593D01*
X235443Y256540*
X247156*
X215653Y288043*
G75*
G02X213710Y292735I4692J4691*
G01*
Y294005*
X205390*
G37*
X213710D02*
G36*
Y357505D01*
X205390*
Y294005*
X213710*
G37*
X228458D02*
G36*
X265003Y257460D01*
X441117*
X468980Y285323*
Y286186*
G75*
G02X465360Y294005I6635J7819*
G01*
X460470*
G75*
G02X450215Y283750I-10255*
G01*
G75*
G02X439960Y294005J10255*
G01*
X435070*
G75*
G02X424815Y283750I-10255*
G01*
G75*
G02X414560Y294005J10255*
G01*
X409670*
G75*
G02X399415Y283750I-10255*
G01*
G75*
G02X389160Y294005J10255*
G01*
X384270*
G75*
G02X374015Y283750I-10255*
G01*
G75*
G02X363760Y294005J10255*
G01*
X358870*
G75*
G02X348615Y283750I-10255*
G01*
G75*
G02X339550Y289210J10255*
G01*
Y272911*
G75*
G02X341550Y268605I-3635J-4306*
G01*
G75*
G02X330280I-5635*
G01*
G75*
G02X332280Y272911I5635*
G01*
Y289210*
G75*
G02X323215Y283750I-9065J4795*
G01*
G75*
G02X312960Y294005J10255*
G01*
X308070*
G75*
G02X297815Y283750I-10255*
G01*
G75*
G02X287560Y294005J10255*
G01*
X282670*
G75*
G02X272415Y283750I-10255*
G01*
G75*
G02X262160Y294005J10255*
G01*
X228458*
G37*
X262160D02*
G36*
G75*
G02X272415Y304260I10255D01*
G01*
G75*
G02X282670Y294005J-10255*
G01*
X287560*
G75*
G02X297815Y304260I10255*
G01*
G75*
G02X308070Y294005J-10255*
G01*
X312960*
G75*
G02X323215Y304260I10255*
G01*
G75*
G02X332280Y298800J-10255*
G01*
Y352710*
G75*
G02X323215Y347250I-9065J4795*
G01*
G75*
G02X319580Y367094J10255*
G01*
Y381399*
X307945Y393035*
G75*
G02X306880Y395605I2570J2571*
G01*
Y505110*
G75*
G02X288750I-9065J4795*
G01*
Y397111*
X300385Y385475*
G75*
G02X301450Y382905I-2570J-2571*
G01*
Y367094*
G75*
G02X297815Y347250I-3635J-9589*
G01*
G75*
G02X287560Y357505J10255*
G01*
X282670*
G75*
G02X272415Y347250I-10255*
G01*
G75*
G02X262160Y357505J10255*
G01*
X226980*
Y295483*
X228458Y294005*
X262160*
G37*
X363760D02*
G36*
G75*
G02X374015Y304260I10255D01*
G01*
G75*
G02X384270Y294005J-10255*
G01*
X389160*
G75*
G02X399415Y304260I10255*
G01*
G75*
G02X409670Y294005J-10255*
G01*
X414560*
G75*
G02X424815Y304260I10255*
G01*
G75*
G02X435070Y294005J-10255*
G01*
X439960*
G75*
G02X450215Y304260I10255*
G01*
G75*
G02X460470Y294005J-10255*
G01*
X465360*
G75*
G02X475615Y304260I10255*
G01*
G75*
G02X485870Y294005J-10255*
G01*
X490760*
G75*
G02X501015Y304260I10255*
G01*
G75*
G02X511270Y294005J-10255*
G01*
X515620*
G75*
G02X526415Y304800I10795*
G01*
G75*
G02X537210Y294005J-10795*
G01*
X541561*
G75*
G02X545180Y301824I10254J1*
G01*
Y349686*
G75*
G02X541560Y357505I6635J7819*
G01*
X537210*
G75*
G02X526415Y346710I-10795*
G01*
G75*
G02X515620Y357505J10795*
G01*
X511270*
G75*
G02X501015Y347250I-10255*
G01*
G75*
G02X490760Y357505J10255*
G01*
X485870*
G75*
G02X475615Y347250I-10255*
G01*
G75*
G02X465360Y357505J10255*
G01*
X460470*
G75*
G02X450215Y347250I-10255*
G01*
G75*
G02X446580Y367094J10255*
G01*
Y382905*
G75*
G02X447645Y385475I3635J-1*
G01*
X459280Y397111*
Y505110*
G75*
G02X441150I-9065J4795*
G01*
Y394335*
G75*
G02X440085Y391765I-3635J1*
G01*
X428450Y380129*
Y367094*
G75*
G02X424815Y347250I-3635J-9589*
G01*
G75*
G02X421180Y367094J10255*
G01*
Y381635*
G75*
G02X422245Y384205I3635J-1*
G01*
X433880Y395841*
Y505110*
G75*
G02X415750I-9065J4795*
G01*
Y395605*
G75*
G02X414685Y393035I-3635J1*
G01*
X403050Y381399*
Y367094*
G75*
G02X399415Y347250I-3635J-9589*
G01*
G75*
G02X395780Y367094J10255*
G01*
Y382905*
G75*
G02X396845Y385475I3635J-1*
G01*
X408480Y397111*
Y505110*
G75*
G02X390350I-9065J4795*
G01*
Y395605*
G75*
G02X389285Y393035I-3635J1*
G01*
X377650Y381399*
Y367094*
G75*
G02X374015Y347250I-3635J-9589*
G01*
G75*
G02X370380Y367094J10255*
G01*
Y382905*
G75*
G02X371445Y385475I3635J-1*
G01*
X383080Y397111*
Y505110*
G75*
G02X364950I-9065J4795*
G01*
Y396875*
G75*
G02X363885Y394305I-3635J1*
G01*
X352250Y382669*
Y367094*
G75*
G02X348615Y347250I-3635J-9589*
G01*
G75*
G02X339550Y352710J10255*
G01*
Y298800*
G75*
G02X348615Y304260I9065J-4795*
G01*
G75*
G02X358870Y294005J-10255*
G01*
X363760*
G37*
X485870D02*
G36*
G75*
G02X482250Y286186I-10255D01*
G01*
Y282575*
G75*
G02X480307Y277883I-6635J-1*
G01*
X458964Y256540*
X510080*
Y268109*
G75*
G02X508080Y272415I3635J4306*
G01*
G75*
G02X519350I5635*
G01*
G75*
G02X517350Y268109I-5635*
G01*
Y256540*
X545180*
Y286186*
G75*
G02X541561Y294005I6635J7818*
G01*
X537210*
G75*
G02X526415Y283210I-10795*
G01*
G75*
G02X515620Y294005J10795*
G01*
X511270*
G75*
G02X501015Y283750I-10255*
G01*
G75*
G02X490760Y294005J10255*
G01*
X485870*
G37*
X562070D02*
G36*
G75*
G02X558450Y286186I-10255D01*
G01*
Y256540*
X611180*
Y294005*
X562070*
G37*
X611180D02*
G36*
Y357505D01*
X562070*
G75*
G02X558450Y349686I-10255*
G01*
Y301824*
G75*
G02X562070Y294005I-6635J-7819*
G01*
X611180*
G37*
X178595Y776605D02*
G36*
G75*
G02X187325Y781050I8730J-6350D01*
G01*
G75*
G02X196055Y776605J-10795*
G01*
X204673*
G75*
G02X212725Y780510I8052J-6350*
G01*
G75*
G02X220777Y776605J-10255*
G01*
X274860*
G75*
G02X295370I10255*
G01*
X312562*
X325261Y789305*
X60650*
Y776605*
X178595*
G37*
X496110D02*
G36*
Y789305D01*
X344028*
X331328Y776605*
X496110*
G37*
X508810D02*
G36*
Y789305D01*
X503380*
Y776605*
X508810*
G37*
X527400D02*
G36*
Y789305D01*
X516080*
Y776605*
X527400*
G37*
X611180D02*
G36*
Y789305D01*
X600550*
G75*
G02X579280I-10635*
G01*
X575150*
G75*
G02X553880I-10635*
G01*
X540670*
Y776605*
X611180*
G37*
X60650Y814705D02*
G36*
Y789305D01*
X325261*
X350661Y814705*
X291750*
Y809824*
G75*
G02X295370Y802005I-6635J-7819*
G01*
G75*
G02X274860I-10255*
G01*
G75*
G02X278480Y809824I10254*
G01*
Y814705*
X60650*
G37*
X278480D02*
G36*
Y819586D01*
G75*
G02X274860Y827405I6635J7819*
G01*
X109470*
G75*
G02X94615Y823380I-14855J25400*
G01*
G75*
G02X79760Y827405J29426*
G01*
X60650*
Y814705*
X278480*
G37*
X350661D02*
G36*
X363361Y827405D01*
X321310*
G75*
G02X310515Y816610I-10795*
G01*
G75*
G02X299720Y827405J10795*
G01*
X295370*
G75*
G02X291750Y819586I-10255*
G01*
Y814705*
X350661*
G37*
X369428D02*
G36*
X344028Y789305D01*
X496110*
Y793889*
G75*
G02X495439Y794560I3636J4307*
G01*
X459601*
G75*
G02X449660Y798195I-4306J3635*
G01*
G75*
G02X459601Y801830I5635*
G01*
X495439*
G75*
G02X505380Y798195I4306J-3635*
G01*
G75*
G02X503380Y793889I-5635*
G01*
Y789305*
X508810*
Y816454*
G75*
G02Y818036I3636J791*
G01*
Y833755*
G75*
G02X509875Y836325I3635J-1*
G01*
X510019Y836470*
X466961*
X444400Y813909*
G75*
G02X444420Y813435I-5612J-474*
G01*
G75*
G02X433150I-5635*
G01*
G75*
G02X433295Y814705I5635*
G01*
X369428*
G37*
X433295D02*
G36*
G75*
G02X439259Y819050I5490J-1270D01*
G01*
X447614Y827405*
X382128*
X369428Y814705*
X433295*
G37*
X516080D02*
G36*
Y789305D01*
X527400*
Y814705*
X516080*
G37*
X527400D02*
G36*
Y817277D01*
G75*
G02X526400Y821055I6636J3778*
G01*
G75*
G02X529796Y827405I7635*
G01*
X516080*
Y818036*
G75*
G02Y816454I-3637J-791*
G01*
Y814705*
X527400*
G37*
X540670D02*
G36*
Y789305D01*
X553880*
G75*
G02X575150I10635*
G01*
X579280*
G75*
G02X600550I10635*
G01*
X611180*
Y814705*
X601090*
G75*
G02X578740I-11175*
G01*
X575150*
G75*
G02X553880I-10635*
G01*
X540670*
G37*
X553880D02*
G36*
G75*
G02X575150I10635D01*
G01*
X578740*
G75*
G02X601090I11175*
G01*
X611180*
Y827405*
X538274*
G75*
G02X541670Y821055I-4239J-6350*
G01*
G75*
G02X540670Y817277I-7636*
G01*
Y814705*
X553880*
G37*
X79760Y827405D02*
G36*
G75*
G02X68072Y840105I14855J25399D01*
G01*
X60650*
Y827405*
X79760*
G37*
X274860D02*
G36*
G75*
G02X285115Y837660I10255D01*
G01*
G75*
G02X295370Y827405J-10255*
G01*
X299720*
G75*
G02X310515Y838200I10795*
G01*
G75*
G02X321310Y827405J-10795*
G01*
X363361*
X376061Y840105*
X121158*
G75*
G02X109470Y827405I-26543J12699*
G01*
X274860*
G37*
X447614D02*
G36*
X460315Y840105D01*
X394828*
X382128Y827405*
X447614*
G37*
X529796D02*
G36*
G75*
G02X538274I4239J-6350D01*
G01*
X611180*
Y840105*
X600550*
G75*
G02X579280I-10635*
G01*
X575150*
G75*
G02X554521Y836470I-10635*
G01*
X520301*
X516080Y832249*
Y827405*
X529796*
G37*
X235443Y256540D02*
G36*
X265003Y226980D01*
X530017*
X545180Y242143*
Y256540*
X517350*
Y244971*
G75*
G02X519350Y240665I-3635J-4306*
G01*
G75*
G02X508080I-5635*
G01*
G75*
G02X510080Y244971I5635*
G01*
Y256540*
X458964*
X448557Y246133*
G75*
G02X443865Y244190I-4691J4692*
G01*
X262255*
G75*
G02X257563Y246133I-1J6635*
G01*
X247156Y256540*
X235443*
G37*
X68072Y865505D02*
G36*
G75*
G02X94615Y882230I26543J-12700D01*
G01*
G75*
G02X121158Y865505J-29425*
G01*
X401461*
X406153Y870197*
G75*
G02X410845Y872140I4691J-4692*
G01*
X553880*
Y876140*
X575150*
Y865505*
X579280*
G75*
G02X600550I10635*
G01*
X611180*
Y886770*
X60650*
Y865505*
X68072*
G37*
X339550Y362300D02*
G75*
G02X344980Y367094I9065J-4795D01*
G01*
Y384175*
G75*
G02X346045Y386745I3635J-1*
G01*
X357680Y398381*
Y505110*
G75*
G02X352250Y500316I-9065J4795*
G01*
Y484505*
G75*
G02X351185Y481935I-3635J1*
G01*
X339550Y470299*
Y362300*
G36*
G75*
G02X344980Y367094I9065J-4795*
G01*
Y384175*
G75*
G02X346045Y386745I3635J-1*
G01*
X357680Y398381*
Y505110*
G75*
G02X352250Y500316I-9065J4795*
G01*
Y484505*
G75*
G02X351185Y481935I-3635J1*
G01*
X339550Y470299*
Y362300*
G37*
D02*
D72*
X69365Y852805D02*
X64825D01*
X94615Y827555D02*
Y823015D01*
Y878055D02*
Y882595D01*
X113395Y688022D02*
X108855D01*
X119865Y852805D02*
X124405D01*
X120015Y535305D02*
Y315595D01*
X250825Y184785*
X379095*
X399415Y164465*
Y141605*
X120015Y560705D02*
X132715Y548005D01*
Y323215*
X253365Y202565*
X389255*
X424815Y167005*
Y141605*
X120015Y681402D02*
Y676862D01*
Y694642D02*
Y699182D01*
X126635Y688022D02*
X131175D01*
X164195Y535305D02*
X159655D01*
X164195Y560705D02*
X159655D01*
X164195Y586422D02*
X159655D01*
X164195Y611822D02*
X159655D01*
X164195Y637222D02*
X159655D01*
X164195Y662622D02*
X159655D01*
X170815Y528685D02*
Y524145D01*
Y541925D02*
Y546465D01*
Y554085D02*
Y549545D01*
Y567325D02*
Y571865D01*
Y579802D02*
Y575262D01*
Y593042D02*
Y597582D01*
Y605202D02*
Y600662D01*
Y618442D02*
Y622982D01*
Y630602D02*
Y626062D01*
Y643842D02*
Y648382D01*
Y656002D02*
Y651462D01*
Y669242D02*
Y673782D01*
X177435Y535305D02*
X181975D01*
X177435Y560705D02*
X181975D01*
X177435Y586422D02*
X181975D01*
X177435Y611822D02*
X181975D01*
X177435Y637222D02*
X181975D01*
X177435Y662622D02*
X181975D01*
X180705Y770255D02*
X176165D01*
X187325Y763635D02*
Y759095D01*
Y776875D02*
Y781415D01*
X193945Y770255D02*
X198485D01*
X272415Y509905D02*
Y535305D01*
X292735Y567055D02*
Y530225D01*
X285115Y522605*
Y395605*
X297815Y382905*
Y357505*
X303895Y827405D02*
X299355D01*
X310515Y820785D02*
Y816245D01*
Y834025D02*
Y838565D01*
X317135Y827405D02*
X321675D01*
X319405Y556895D02*
Y531495D01*
X310515Y522605*
Y395605*
X323215Y382905*
Y357505*
X348615Y509905D02*
Y484505D01*
X335915Y471805*
Y268605*
X348615Y577215D02*
Y509905D01*
X361315Y536575D02*
Y396875D01*
X348615Y384175*
Y357505*
X367665Y688475D02*
X366395D01*
Y675005*
X381635Y659765*
Y649605*
X367665Y705485D02*
Y695975D01*
X381635Y649605D02*
Y540385D01*
X386715Y535305*
Y395605*
X374015Y382905*
Y357505*
X393065Y688475D02*
Y673735D01*
X399415Y667385*
Y649605*
X393065Y711835D02*
Y695975D01*
X399415Y649605D02*
Y548005D01*
X412115Y535305*
Y395605*
X399415Y382905*
Y357505*
X418465Y649605D02*
Y554355D01*
X437515Y535305*
Y394335*
X424815Y381635*
Y357505*
X418465Y688475D02*
Y649605D01*
Y718185D02*
Y695975D01*
X438785Y813435D02*
X465455Y840105D01*
X518795*
X443865Y649605D02*
Y681355D01*
Y554355*
X462915Y535305*
Y395605*
X450215Y382905*
Y357505*
X443865Y688475D02*
Y681355D01*
Y695975D02*
Y725805D01*
X455295Y798195D02*
X499745D01*
X469265Y688475D02*
Y596265D01*
X479425Y696595D02*
Y702945D01*
X476885Y705485*
X471805*
X469265Y702945*
Y695975*
X488315Y725805D02*
Y535305D01*
X501015Y522605*
Y509905*
X499745Y798195D02*
Y544195D01*
X511175Y532765*
Y525145*
X526415Y509905*
X512445Y817245D02*
Y548005D01*
X550545Y509905*
X551815*
X513715Y272415D02*
Y240665D01*
X518795Y840105D02*
X512445Y833755D01*
Y817245*
X519795Y294005D02*
X515255D01*
X519795Y357505D02*
X515255D01*
X526415Y287385D02*
Y282845D01*
Y300625D02*
Y305165D01*
Y350885D02*
Y346345D01*
Y364125D02*
Y368665D01*
X533035Y294005D02*
X537575D01*
X533035Y357505D02*
X537575D01*
X557515Y560705D02*
X552975D01*
X557515Y763905D02*
X552975D01*
X564515Y553705D02*
Y549165D01*
Y567705D02*
Y572245D01*
Y756905D02*
Y752365D01*
Y770905D02*
Y775445D01*
Y840105D02*
X518795D01*
X571515Y560705D02*
X576055D01*
X571515Y763905D02*
X576055D01*
X582915Y636905D02*
X578375D01*
X582915Y713105D02*
X578375D01*
X582915Y814705D02*
X578375D01*
X589915Y629905D02*
Y625365D01*
Y643905D02*
Y648445D01*
Y706105D02*
Y701565D01*
Y720105D02*
Y724645D01*
Y807705D02*
Y803165D01*
Y821705D02*
Y826245D01*
X596915Y636905D02*
X601455D01*
X596915Y713105D02*
X601455D01*
X596915Y814705D02*
X601455D01*
D02*
D73*
X94615Y852805D02*
X95885D01*
X178435Y770255*
X187325*
X170815Y560705D02*
Y535305D01*
Y586422D02*
Y560705D01*
Y586422D02*
Y611822D01*
Y637222*
Y662622*
X526415Y357505D02*
Y372745D01*
X575945Y422275*
Y549275*
X564515Y560705*
X577215Y573405*
Y622935*
X589915Y635635*
Y636905*
X564515Y763905D02*
X577215Y751205D01*
Y725805*
X589915Y713105*
Y636905D02*
X591185D01*
X605155Y650875*
Y699135*
X591185Y713105*
X589915*
Y814705D02*
X577215Y802005D01*
Y776605*
X564515Y763905*
D02*
D82*
X120015Y586422D03*
Y611822D03*
Y637222D03*
Y662622D03*
Y688022D03*
Y713422D03*
Y738822D03*
Y764222D03*
X145415Y586422D03*
Y611822D03*
Y637222D03*
Y662622D03*
X170815Y586422D03*
Y611822D03*
Y637222D03*
Y662622D03*
X187325Y770255D03*
X212725D03*
D02*
D83*
X217805Y700722D03*
X534035Y821055D03*
D02*
D85*
X272415Y535305D03*
X292735Y567055D03*
X319405Y556895D03*
X335915Y268605D03*
X348615Y577215D03*
X361315Y536575D03*
X367665Y705485D03*
X381635Y649605D03*
X393065Y711835D03*
X399415Y649605D03*
X418465D03*
Y718185D03*
X438785Y813435D03*
X443865Y649605D03*
Y725805D03*
X455295Y798195D03*
X469265Y596265D03*
X479425Y696595D03*
X488315Y725805D03*
X499745Y798195D03*
X513715Y240665D03*
Y272415D03*
D02*
D103*
X564515Y560705D03*
Y586105D03*
Y611505D03*
Y636905D03*
Y662305D03*
Y687705D03*
Y713105D03*
Y738505D03*
Y763905D03*
Y789305D03*
Y814705D03*
Y840105D03*
X589915Y560705D03*
Y586105D03*
Y611505D03*
Y636905D03*
Y662305D03*
Y687705D03*
Y713105D03*
Y738505D03*
Y763905D03*
Y789305D03*
Y814705D03*
Y840105D03*
Y865505D03*
D02*
D105*
X551815Y141605D03*
Y509905D03*
D02*
D106*
X120015Y535305D03*
Y560705D03*
X145415Y535305D03*
Y560705D03*
X170815Y535305D03*
Y560705D03*
X272415Y141605D03*
Y294005D03*
Y357505D03*
Y509905D03*
X285115Y776605D03*
Y802005D03*
Y827405D03*
X297815Y141605D03*
Y294005D03*
Y357505D03*
Y509905D03*
X310515Y827405D03*
X323215Y141605D03*
Y294005D03*
Y357505D03*
Y509905D03*
X348615Y141605D03*
Y294005D03*
Y357505D03*
Y509905D03*
X374015Y141605D03*
Y294005D03*
Y357505D03*
Y509905D03*
X399415Y141605D03*
Y294005D03*
Y357505D03*
Y509905D03*
X424815Y141605D03*
Y294005D03*
Y357505D03*
Y509905D03*
X450215Y141605D03*
Y294005D03*
Y357505D03*
Y509905D03*
X475615Y141605D03*
Y294005D03*
Y357505D03*
Y509905D03*
X501015Y141605D03*
Y294005D03*
Y357505D03*
Y509905D03*
X526415Y141605D03*
Y294005D03*
Y357505D03*
Y509905D03*
X551815Y294005D03*
Y357505D03*
D02*
D108*
X94615Y78105D03*
Y852805D03*
X577215Y78105D03*
D02*
D109*
X367665Y695975D03*
X393065D03*
X418465D03*
X443865D03*
X469265D03*
D02*
D110*
X145415Y560705D02*
Y535305D01*
Y586422D02*
Y560705D01*
Y586422D02*
Y611822D01*
Y637222*
Y662622*
Y687705*
X159385Y701675*
X184785*
Y700405*
X198755Y686435*
Y283845*
X262255Y220345*
X532765*
X551815Y239395*
Y294005*
X212725Y770255D02*
Y752475D01*
X184785Y724535*
Y701675*
X217805Y700722D02*
X245746D01*
X245904Y700564*
X410845Y865505*
X564515*
X285115Y827405D02*
Y802005D01*
X475615Y294005D02*
Y282575D01*
X443865Y250825*
X262255*
X220345Y292735*
Y659765*
X245904Y685324*
Y700564*
X551815Y357505D02*
Y294005D01*
X564515Y662305D02*
X544195D01*
X534035Y672465*
Y821055*
D02*
D111*
X367665Y688475D03*
X393065D03*
X418465D03*
X443865D03*
X469265D03*
D02*
D121*
X564515Y865505D03*
X0Y0D02*
M02*
